inDegrees=no
num_controls=7
num_derivatives=13
num_iterations=144
num_multipliers=7
num_parameters=0
num_slacks=7
num_states=26
objective=4.998296
objective_accelerations=0.378521
objective_balance=0.029191
objective_effort=0.178444
objective_height=4.389252
objective_ligament=0.022888
solver_duration=1588.932846
status=Solve_Succeeded
success=true
DataType=double
version=3
OpenSimVersion=4.4-2022-07-23-0e9fedc
endheader
time	/jointset/ground_pelvis/pelvis_tilt/value	/jointset/ground_pelvis/pelvis_tx/value	/jointset/ground_pelvis/pelvis_ty/value	/jointset/hip_l/hip_flexion_l/value	/jointset/hip_l/hip_adduction_l/value	/jointset/hip_l/hip_rotation_l/value	/jointset/back/lumbar_extension/value	/jointset/patellofemoral_l/patellar_flexion_l/value	/jointset/knee_l/knee_flexion_l/value	/jointset/knee_l/knee_adduction_l/value	/jointset/knee_l/knee_rotation_l/value	/jointset/ankle_l/ankle_angle_l/value	/jointset/subtalar_l/subtalar_angle_l/value	/jointset/ground_pelvis/pelvis_tilt/speed	/jointset/ground_pelvis/pelvis_tx/speed	/jointset/ground_pelvis/pelvis_ty/speed	/jointset/hip_l/hip_flexion_l/speed	/jointset/hip_l/hip_adduction_l/speed	/jointset/hip_l/hip_rotation_l/speed	/jointset/back/lumbar_extension/speed	/jointset/patellofemoral_l/patellar_flexion_l/speed	/jointset/knee_l/knee_flexion_l/speed	/jointset/knee_l/knee_adduction_l/speed	/jointset/knee_l/knee_rotation_l/speed	/jointset/ankle_l/ankle_angle_l/speed	/jointset/subtalar_l/subtalar_angle_l/speed	/forceset/tau_hip_flexion_l	/forceset/tau_hip_adduction_l	/forceset/tau_hip_rotation_l	/forceset/tau_knee_flexion_l	/forceset/tau_ankle_angle_l	/forceset/tau_subtalar_angle_l	/forceset/tau_lumbar_extension	lambda_cid13_p0	lambda_cid13_p1	lambda_cid13_p2	lambda_cid13_p3	lambda_cid13_p4	lambda_cid13_p5	lambda_cid14_p0	/jointset/ground_pelvis/pelvis_tilt/accel	/jointset/ground_pelvis/pelvis_tx/accel	/jointset/ground_pelvis/pelvis_ty/accel	/jointset/hip_l/hip_flexion_l/accel	/jointset/hip_l/hip_adduction_l/accel	/jointset/hip_l/hip_rotation_l/accel	/jointset/back/lumbar_extension/accel	/jointset/patellofemoral_l/patellar_flexion_l/accel	/jointset/knee_l/knee_flexion_l/accel	/jointset/knee_l/knee_adduction_l/accel	/jointset/knee_l/knee_rotation_l/accel	/jointset/ankle_l/ankle_angle_l/accel	/jointset/subtalar_l/subtalar_angle_l/accel	gamma_cid13_p0	gamma_cid13_p1	gamma_cid13_p2	gamma_cid13_p3	gamma_cid13_p4	gamma_cid13_p5	gamma_cid14_p0
1.5	-0.161687614556999	0.08135479432205277	0.8182961890846439	0.6491444816704577	-0.4443191783418702	-0.2740688768760662	-0.1977463305070409	0.6831317695359511	0.6831317695359191	-0.1719815883678643	-0.1541589065538052	0.2345916394064233	0.03337354628878225	0.1373253294303153	0.05584281345854569	0.3040724805753386	-1.231404510777812	0.2631819339391607	-0.6435318989316834	0.3502024005567628	-1.683929043019604	-1.683929043019616	-0.01149303926206004	0.09809069234633298	-0.7045141876222233	-0.09221871050841957	-0.07221662290421653	0.03639798688058867	-0.006829372142275517	-0.2121258532698614	-0.03724465983895434	0.02482418463966849	0.09762247440801328	-44.77399082256526	-7.697721279901415	6.32401069383535	2.947531792814357	-530.8703293345974	-69.96105921870684	-30.86877967787468	0.07777819447515927	0.1738106059414989	-0.3163325220011439	-0.5325605709434564	0.5676170864765668	-0.1007289678663724	0.8458462986154536	-1.15899225697971	-1.158992256979722	0.03391025977248846	0.1462410676969892	-0.4935331429610168	0.4331919314131034	1.126545872995921e-07	1.019580994687761e-06	-2.643505665519089e-07	1.987246034718519e-07	8.05379039319934e-08	6.082255043291514e-07	1.177102051301296e-07
1.51	-0.160310580598287	0.08192184632370696	0.8213204408453335	0.6368054068096639	-0.4416595709142757	-0.2805095157155689	-0.1942025269404753	0.6662369734811708	0.6662369734811289	-0.1720950112887508	-0.1531723380210473	0.2275226773777222	0.03247263529575047	0.1380722729742586	0.05755880908260747	0.3007164444060335	-1.236235271934966	0.2687136513260325	-0.6444994221716283	0.3585019854501827	-1.694792701079991	-1.694792701080009	-0.01119838759980848	0.09920571620933941	-0.7091791634605926	-0.08795043456901887	-0.06962637953183096	0.03478597000646346	-0.006770559215531375	-0.2094384069347024	-0.03462835567663507	0.02431356981110137	0.09522454422165703	-43.85626765213919	-7.647164613719196	6.327962916141228	2.671846855361375	-528.8348348475816	-69.92277804401881	-31.60251790118376	0.07175018445016836	0.1692242439561319	-0.3544500785834732	-0.4320818164945205	0.5419644598965739	-0.08020712320370035	0.8135654887041396	-1.014452598501039	-1.014452598501988	0.02637899454489896	0.09152550362002956	-0.4380825078249136	0.4254372285675722	8.413797976805161e-08	1.075283007449203e-06	-1.404083746028746e-07	2.22243111847094e-07	3.780858157449233e-08	5.666799185467879e-07	1.061745757224418e-07
1.52	-0.1589263576541174	0.08250580432226515	0.8243092900614925	0.6244232747516245	-0.4389454432337907	-0.2869569184116999	-0.1905774173441747	0.6492406608422016	0.6492406608421476	-0.1722056604180016	-0.1521751407580556	0.2204100450499278	0.03161476542278569	0.1387631265220588	0.05922401283934888	0.2969919716691892	-1.240015950227848	0.2740859845170648	-0.6448846702573776	0.3664636065035628	-1.704232359857693	-1.704232359857717	-0.01093828093381742	0.1002164383930502	-0.713248247440962	-0.08361048649505529	-0.06703613615938803	0.03317395313235154	-0.006711746288781041	-0.2067509605995318	-0.03201205151431057	0.02380295498255498	0.09282661403534491	-42.94509688859031	-7.596611146441071	6.33323024261302	2.390695833292929	-526.9120289327963	-69.91544712356267	-32.32583720677606	0.06656019524654166	0.1636522324774336	-0.3900198355089763	-0.3225439980891837	0.5357402473086396	0.01572606297273758	0.7782535306074514	-0.8741924004427231	-0.8741924004427231	0.02700126052037733	0.1253807318378694	-0.3743547713610108	0.4475263583256896	6.147704714943327e-08	1.123738918675932e-06	-4.60479674603732e-08	2.405106840312666e-07	7.364439230828694e-09	5.349367319931728e-07	9.753284991480102e-08
1.53	-0.1575355991426174	0.08310613792059537	0.8272590770187739	0.6120087763331526	-0.436178403981747	-0.2934055555767244	-0.1868743669268609	0.6321572786773498	0.632157278677325	-0.1723136414791048	-0.1511685896793367	0.2132597874898246	0.03080070300794138	0.1393758782606756	0.06083168546707724	0.2929076152093951	-1.242698802603606	0.2792912218442035	-0.6447510012028662	0.3740847068864097	-1.712192523155874	-1.71219252315589	-0.01065880935687109	0.1010715724923282	-0.7166980200226604	-0.07919065651931495	-0.06436112079912114	0.03145242881963252	-0.006690629095214012	-0.2041120605595163	-0.0292676423101537	0.02324193599494011	0.09035797152279521	-41.99450964616454	-7.528396713819032	6.332629441998732	2.101078499040349	-524.9793016827704	-69.89104821260827	-33.03530956889222	0.05669696481542904	0.1577235723988707	-0.4263181052948055	-0.2134506390802421	0.5081892308185386	0.0260311330094201	0.7447727811231267	-0.7192135981206473	-0.7192135981194377	0.02847304208950056	0.06225507548907727	-0.3144629154639098	0.4407185485110395	4.503776912579468e-08	1.164495847022026e-06	1.688179332518733e-08	2.53199136512428e-07	-1.002669934813283e-08	5.136085946201029e-07	9.196589668221006e-08
